<svg width="27" height="22" viewBox="0 0 27 22" fill="none" xmlns="http://www.w3.org/2000/svg">
<path d="M26.674 2.5828C25.7113 3.00867 24.6903 3.28836 23.6449 3.41261C24.7467 2.75359 25.5715 1.71643 25.9653 0.494397C24.9312 1.10982 23.7974 1.54112 22.6158 1.77442C21.8221 0.925166 20.77 0.361934 19.6231 0.17229C18.4762 -0.0173543 17.2989 0.177216 16.274 0.725751C15.2491 1.27429 14.4342 2.14605 13.9559 3.20552C13.4776 4.265 13.3627 5.45281 13.6291 6.5843C11.532 6.47919 9.48047 5.93423 7.60766 4.98479C5.73486 4.03535 4.08266 2.70266 2.75833 1.07325C2.28956 1.8784 2.04322 2.79369 2.04454 3.72536C2.04454 5.55397 2.97524 7.16946 4.39021 8.11529C3.55284 8.08893 2.7339 7.86279 2.00166 7.45573V7.52131C2.00191 8.73916 2.42334 9.91946 3.19448 10.8621C3.96562 11.8047 5.03902 12.4516 6.23269 12.6931C5.45536 12.9038 4.64029 12.9348 3.84919 12.7839C4.18574 13.8322 4.84169 14.749 5.72521 15.4059C6.60872 16.0628 7.67556 16.427 8.77635 16.4475C7.68231 17.3067 6.42965 17.9418 5.08997 18.3166C3.7503 18.6914 2.34989 18.7985 0.968811 18.6317C3.37967 20.1821 6.18615 21.0053 9.05253 21.0026C18.7543 21.0026 24.0598 12.9655 24.0598 5.99536C24.0598 5.76836 24.0535 5.53884 24.0434 5.31436C25.076 4.568 25.9673 3.64342 26.6753 2.58406L26.674 2.5828Z" fill="url(#paint0_linear_4_177)"/>
<defs>
<linearGradient id="paint0_linear_4_177" x1="0.968811" y1="0.101624" x2="25.0254" y2="22.7547" gradientUnits="userSpaceOnUse">
<stop stop-color="#7A7A7A"/>
<stop offset="1" stop-color="#494949"/>
</linearGradient>
</defs>
</svg>
